ModelForces
version=1
nRows=4
nColumns=155
inDegrees=no

This file contains the forces exerted on a model during a simulation.

A force is a generalized force, meaning that it can be either a force (N) or a torque (Nm).

Units are S.I. units (second, meters, Newtons, ...)
Angles are in degrees.

endheader
time	glut_med1_r	glut_med2_r	glut_med3_r	glut_min1_r	glut_min2_r	glut_min3_r	semimem_r	semiten_r	bifemlh_r	bifemsh_r	sar_r	add_long_r	add_brev_r	add_mag1_r	add_mag2_r	add_mag3_r	tfl_r	pect_r	grac_r	glut_max1_r	glut_max2_r	glut_max3_r	iliacus_r	psoas_r	quad_fem_r	gem_r	peri_r	rect_fem_r	vas_med_r	vas_int_r	vas_lat_r	med_gas_r	lat_gas_r	soleus_r	tib_post_r	flex_dig_r	flex_hal_r	tib_ant_r	per_brev_r	per_long_r	per_tert_r	ext_dig_r	ext_hal_r	glut_med1_l	glut_med2_l	glut_med3_l	glut_min1_l	glut_min2_l	glut_min3_l	semimem_l	semiten_l	bifemlh_l	bifemsh_l	sar_l	add_long_l	add_brev_l	add_mag1_l	add_mag2_l	add_mag3_l	tfl_l	pect_l	grac_l	glut_max1_l	glut_max2_l	glut_max3_l	iliacus_l	psoas_l	quad_fem_l	gem_l	peri_l	rect_fem_l	vas_med_l	vas_int_l	vas_lat_l	med_gas_l	lat_gas_l	soleus_l	tib_post_l	flex_dig_l	flex_hal_l	tib_ant_l	per_brev_l	per_long_l	per_tert_l	ext_dig_l	ext_hal_l	ercspn_r	ercspn_l	intobl_r	intobl_l	extobl_r	extobl_l	femur_lat_meniscii_r.femur_lat_r.force.X	femur_lat_meniscii_r.femur_lat_r.force.Y	femur_lat_meniscii_r.femur_lat_r.force.Z	femur_lat_meniscii_r.femur_lat_r.torque.X	femur_lat_meniscii_r.femur_lat_r.torque.Y	femur_lat_meniscii_r.femur_lat_r.torque.Z	femur_lat_meniscii_r.meniscus_lat_r.force.X	femur_lat_meniscii_r.meniscus_lat_r.force.Y	femur_lat_meniscii_r.meniscus_lat_r.force.Z	femur_lat_meniscii_r.meniscus_lat_r.torque.X	femur_lat_meniscii_r.meniscus_lat_r.torque.Y	femur_lat_meniscii_r.meniscus_lat_r.torque.Z	femur_med_meniscii_r.femur_med_r.force.X	femur_med_meniscii_r.femur_med_r.force.Y	femur_med_meniscii_r.femur_med_r.force.Z	femur_med_meniscii_r.femur_med_r.torque.X	femur_med_meniscii_r.femur_med_r.torque.Y	femur_med_meniscii_r.femur_med_r.torque.Z	femur_med_meniscii_r.meniscus_med_r.force.X	femur_med_meniscii_r.meniscus_med_r.force.Y	femur_med_meniscii_r.meniscus_med_r.force.Z	femur_med_meniscii_r.meniscus_med_r.torque.X	femur_med_meniscii_r.meniscus_med_r.torque.Y	femur_med_meniscii_r.meniscus_med_r.torque.Z	femur_med_tibia_r.tibia_upper_r.force.X	femur_med_tibia_r.tibia_upper_r.force.Y	femur_med_tibia_r.tibia_upper_r.force.Z	femur_med_tibia_r.tibia_upper_r.torque.X	femur_med_tibia_r.tibia_upper_r.torque.Y	femur_med_tibia_r.tibia_upper_r.torque.Z	femur_med_tibia_r.femur_med_r.force.X	femur_med_tibia_r.femur_med_r.force.Y	femur_med_tibia_r.femur_med_r.force.Z	femur_med_tibia_r.femur_med_r.torque.X	femur_med_tibia_r.femur_med_r.torque.Y	femur_med_tibia_r.femur_med_r.torque.Z	femur_lat_tibia_r.tibia_upper_r.force.X	femur_lat_tibia_r.tibia_upper_r.force.Y	femur_lat_tibia_r.tibia_upper_r.force.Z	femur_lat_tibia_r.tibia_upper_r.torque.X	femur_lat_tibia_r.tibia_upper_r.torque.Y	femur_lat_tibia_r.tibia_upper_r.torque.Z	femur_lat_tibia_r.femur_lat_r.force.X	femur_lat_tibia_r.femur_lat_r.force.Y	femur_lat_tibia_r.femur_lat_r.force.Z	femur_lat_tibia_r.femur_lat_r.torque.X	femur_lat_tibia_r.femur_lat_r.torque.Y	femur_lat_tibia_r.femur_lat_r.torque.Z	aACL_R	pACL_R	aPCL_R	pPCL_R	aMCL_R	mMCL_R	pMCL_R	aLCL_R	mLCL_R	pLCL_R	aPCL_L	pPCL_L	aMCL_L	aLCL_L
      0.16884854	     11.22623770	      8.19754207	      8.81495802	      3.78770179	      4.40718448	      4.75605830	      0.00000000	    166.01044065	    160.21386720	    313.12793599	    128.81875657	      8.15695174	      5.87975764	      3.99067674	      3.57347929	      6.01513064	      4.30224910	      3.19673696	     99.67978517	      5.29266322	      8.05116316	      6.04862667	     27.27434047	     18.21807233	      5.20654480	      3.61100351	      6.19288873	     57.18348223	     30.36660417	     32.75423389	     44.64787042	      0.00000000	      0.00000000	      0.00000000	      0.00000000	      0.00000000	      0.00000000	     40.01694684	      1.72800676	      1.76531000	     21.54318215	     39.63336556	     11.34056841	     11.22623770	      8.19754207	      8.81495802	      3.78770179	      4.40718448	      4.75605830	      0.00000000	      6.06782996	     11.98138623	     10.36274728	      2.16134836	      8.15695174	      5.87975764	      3.99067674	      3.57347929	      6.01513064	      5.35154477	      3.19673696	      2.23053270	      5.29266322	      8.05116316	      6.04862667	     27.27434047	     18.21807233	      5.20654480	      3.61100351	      6.19288873	     16.66377916	      0.00000000	      0.00000000	      0.00000000	     21.05512167	      9.93276291	     49.94077812	     50.53208623	      5.34952735	      4.78329707	     12.98094334	      6.93602045	     17.91010256	      2.81694844	      8.65530298	      2.72284898	     35.65108227	     35.65108227	     13.22825898	     13.22825898	     30.61524033	     30.61524033	      8.51547288	     69.51355998	     11.55387322	     -6.36626111	      0.25338922	      2.96582772	     -8.51547288	    -69.51355998	    -11.55387322	      2.02867985	     -0.52614791	      1.87211556	      1.64754775	      1.02570829	     -0.35566737	      0.16163466	     -0.03221249	      0.65676814	     -1.64754775	     -1.02570829	      0.35566737	     -0.02168929	      0.03673601	      0.00454213	   -263.71692440	   -575.20816291	    179.90085579	    -11.95234280	      8.56338126	      9.85008984	    263.71692440	    575.20816291	   -179.90085579	     82.85276820	     -5.12009213	    105.09238805	    -39.64171874	   -301.01347439	    -69.36034754	      8.99754415	     -2.97878676	      7.84637513	     39.64171874	    301.01347439	     69.36034754	    -35.27280655	      1.36463742	     14.17596643	     11.95811090	    -14.27821636	    225.25730269	    146.95817786	      0.00000000	      0.00000000	      0.00000000	      0.00000000	      0.00000000	      0.00000000	      0.00000000	      0.00000000	      0.00000001	      0.00000000
      0.16919671	     11.21005280	      8.18595024	      8.80234319	      3.78256592	      4.40156744	      4.74888058	      0.00000000	    166.57166481	    159.39491217	    312.51937063	    129.05255055	      8.14528417	      5.87185928	      4.00484145	      3.56833348	      6.00580493	      4.29713525	      3.19237153	     99.92522791	      5.28515081	      8.03970911	      6.03988653	     27.25299596	     18.19373433	      5.19933112	      3.60748478	      6.18862806	     57.47285721	     30.36615825	     32.74156539	     44.60992849	      0.00000000	      0.00000000	      0.00000000	      0.00000000	      0.00000000	      0.00000000	     40.08354907	      1.75304961	      1.81344629	     21.97626499	     39.82619891	     11.39449123	     11.21005280	      8.18595024	      8.80234319	      3.78256592	      4.40156744	      4.74888058	      0.00000000	      6.05869923	     11.96332090	     10.34837351	      2.15843140	      8.14528417	      5.87185928	      4.00484145	      3.56833348	      6.00580493	      5.34579409	      3.19237153	      2.22746941	      5.28515081	      8.03970911	      6.03988653	     27.25299596	     18.19373433	      5.19933112	      3.60748478	      6.18862806	     16.63676767	      0.00000000	      0.00000000	      0.00000000	     21.04491799	      9.92679669	     49.87299823	     50.49742874	      5.34117723	      4.77546370	     12.96093626	      6.92471197	     17.88863620	      2.81319865	      8.64262534	      2.71924335	     35.60263301	     35.60263301	     13.20882634	     13.20882634	     30.59763523	     30.59763523	      8.69474557	     69.35982544	     11.58629061	     -6.37677785	      0.25688689	      3.03656900	     -8.69474557	    -69.35982544	    -11.58629061	      2.02575465	     -0.53127292	      1.87116278	      1.70746437	      1.05278848	     -0.37017548	      0.16790324	     -0.03345061	      0.68069554	     -1.70746437	     -1.05278848	      0.37017548	     -0.02226517	      0.03819329	      0.00456018	   -269.57960821	   -577.05563591	    181.20342799	    -11.99523175	      8.69203723	      9.82242494	    269.57960821	    577.05563591	   -181.20342799	     83.41113710	     -5.22279215	    107.47237155	    -40.41373724	   -299.58214682	    -69.35548230	      8.95817344	     -3.00238578	      7.81105428	     40.41373724	    299.58214682	     69.35548230	    -35.23769201	      1.38349044	     14.49497905	     11.67167890	    -14.15402298	    230.12572239	    149.20584520	      0.00000000	      0.00000000	      0.00000000	      0.00000000	      0.00000000	      0.00000000	      0.00000000	      0.00000000	      0.00000001	      0.00000000
      0.16943082	     11.19920013	      8.17818631	      8.79389417	      3.77912591	      4.39780526	      4.74407297	      0.00000000	    166.94447126	    158.85583952	    312.12760651	    129.20693915	      8.13746961	      5.86656890	      4.01309097	      3.56488699	      5.99955881	      4.29382762	      3.18944759	    100.08704155	      5.28011928	      8.03203760	      6.03403274	     27.23870071	     18.17743440	      5.19449951	      3.60512824	      6.18574091	     57.66993953	     30.36712063	     32.73430908	     44.58579896	      0.00000000	      0.00000000	      0.00000000	      0.00000000	      0.00000000	      0.00000000	     40.12771277	      1.76956345	      1.84535946	     21.49247241	     39.95585747	     11.43113770	     11.19920013	      8.17818631	      8.79389417	      3.77912591	      4.39780526	      4.74407297	      0.00000000	      6.05258381	     11.95120526	     10.33874619	      2.15647761	      8.13746961	      5.86656890	      4.01309097	      3.56488699	      5.99955881	      5.34194224	      3.18944759	      2.22541764	      5.28011928	      8.03203760	      6.03403274	     27.23870071	     18.17743440	      5.19449951	      3.60512824	      6.18574091	     16.61867264	      0.00000000	      0.00000000	      0.00000000	     21.03798362	      9.92275387	     49.82746712	     50.47419544	      5.33553874	      4.77016393	     12.94752709	      6.91713357	     17.87423651	      2.81068728	      8.63420749	      2.71685760	     35.57018174	     35.57018174	     13.19581108	     13.19581108	     30.58584456	     30.58584456	      8.77479455	     69.27134504	     11.60749059	     -6.38369424	      0.25843021	      3.06725136	     -8.77479455	    -69.27134504	    -11.60749059	      2.02389373	     -0.53381786	      1.87204419	      1.74872902	      1.07162611	     -0.38019633	      0.17226624	     -0.03429123	      0.69716017	     -1.74872902	     -1.07162611	      0.38019633	     -0.02269534	      0.03918599	      0.00459392	   -273.71588579	   -578.38297569	    182.26178289	    -12.03052662	      8.78580745	      9.80076432	    273.71588579	    578.38297569	   -182.26178289	     83.86411327	     -5.29537888	    109.15340104	    -40.88537792	   -298.73107717	    -69.08099506	      8.92598622	     -3.00964404	      7.79154440	     40.88537792	    298.73107717	     69.08099506	    -35.10299343	      1.39366769	     14.68930125	     11.49764980	    -14.05866213	    233.38490085	    150.69883999	      0.00000000	      0.00000000	      0.00000000	      0.00000000	      0.00000000	      0.00000000	      0.00000000	      0.00000000	      0.00000001	      0.00000000
      0.16977067	     11.18348898	      8.16695902	      8.78167630	      3.77415118	      4.39236482	      4.73712056	      0.00000000	    167.48043876	    158.09240376	    311.59248355	    129.42808386	      8.12616921	      5.85891821	      4.02343309	      3.55990313	      5.99052639	      4.28923451	      3.18521922	    100.31835053	      5.27284339	      8.02094416	      6.02556787	     27.21802968	     18.15386486	      5.18751247	      3.60172079	      6.18151834	     57.95768505	     30.36701947	     32.72280507	     44.55072259	      0.00000000	      0.00000000	      0.00000000	      0.00000000	      0.00000000	      0.00000000	     40.19078045	      1.79305241	      1.89103914	     21.99582438	     40.14253875	     11.48333366	     11.18348898	      8.16695902	      8.78167630	      3.77415118	      4.39236482	      4.73712056	      0.00000000	      6.04374059	     11.93366262	     10.32482410	      2.15365215	      8.12616921	      5.85891821	      4.02343309	      3.55990313	      5.99052639	      5.33637186	      3.18521922	      2.22245054	      5.27284339	      8.02094416	      6.02556787	     27.21802968	     18.15386486	      5.18751247	      3.60172079	      6.18151834	     16.59250093	      0.00000000	      0.00000000	      0.00000000	     21.02781316	      9.91684102	     49.76143621	     50.44056912	      5.32731925	      4.76242368	     12.92812377	      6.90616860	     17.85338218	      2.80705582	      8.62213867	      2.71344901	     35.52325284	     35.52325284	     13.17699027	     13.17699027	     30.56879541	     30.56879541	      8.89964810	     69.14614224	     11.56109684	     -6.36187483	      0.26031081	      3.11530977	     -8.89964810	    -69.14614224	    -11.56109684	      2.01925750	     -0.53545750	      1.87323925	      1.80856817	      1.08498702	     -0.38973788	      0.17635678	     -0.03543640	      0.72120285	     -1.80856817	     -1.08498702	      0.38973788	     -0.02304461	      0.04044192	      0.00417297	   -280.01758859	   -580.14962275	    183.25245421	    -12.06349242	      8.91009402	      9.75657635	    280.01758859	    580.14962275	   -183.25245421	     84.29171695	     -5.40152044	    111.71885487	    -41.89646481	   -297.01928434	    -69.03016338	      8.87929737	     -3.03712140	      7.73953838	     41.89646481	    297.01928434	     69.03016338	    -35.04322822	      1.41701433	     15.11104133	     11.26138860	    -13.90512759	    238.11073083	    152.88027031	      0.00000000	      0.00000000	      0.00000000	      0.00000000	      0.00000000	      0.00000000	      0.00000000	      0.00000000	      0.00000001	      0.00000000
